<svg width="18" height="31" viewBox="0 0 18 31" fill="none" xmlns="http://www.w3.org/2000/svg">
<path d="M17.3222 0.00645007L13.0048 0C8.15436 0 5.0198 2.99444 5.0198 7.62914V11.1467H0.678867C0.303758 11.1467 0 11.4298 0 11.7791V16.8756C0 17.2249 0.304105 17.5077 0.678867 17.5077H5.0198V30.3679C5.0198 30.7172 5.32356 31 5.69867 31H11.3624C11.7375 31 12.0412 30.7168 12.0412 30.3679V17.5077H17.1168C17.4919 17.5077 17.7956 17.2249 17.7956 16.8756L17.7977 11.7791C17.7977 11.6114 17.726 11.4508 17.5989 11.3321C17.4718 11.2134 17.2986 11.1467 17.1185 11.1467H12.0412V8.16482C12.0412 6.73161 12.408 6.00405 14.4131 6.00405L17.3215 6.00308C17.6962 6.00308 18 5.71992 18 5.37097V0.638557C18 0.289931 17.6966 0.00709508 17.3222 0.00645007Z" fill="#DCDCDC"/>
</svg>
