<svg width="31" height="17" viewBox="0 0 31 17" fill="none" xmlns="http://www.w3.org/2000/svg">
<path d="M30.8356 15.3529C30.7981 15.2751 30.7631 15.2106 30.7306 15.1589C30.1927 14.2279 29.1649 13.0851 27.6477 11.7302L27.6157 11.6991L27.5996 11.6839L27.5834 11.6683H27.5671C26.8786 11.0374 26.4425 10.6132 26.2599 10.396C25.9258 9.98232 25.851 9.56354 26.0336 9.13923C26.1626 8.81864 26.6472 8.1416 27.4862 7.10719C27.9276 6.55898 28.2771 6.11962 28.5352 5.7886C30.3969 3.40973 31.204 1.8896 30.9564 1.22761L30.8602 1.07292C30.7956 0.979782 30.6289 0.894582 30.3602 0.81688C30.0908 0.739341 29.7466 0.726518 29.3269 0.778193L24.6785 0.809056C24.6032 0.783409 24.4957 0.785799 24.3556 0.81688C24.2157 0.847961 24.1457 0.863556 24.1457 0.863556L24.0648 0.902407L24.0006 0.949082C23.9468 0.979945 23.8876 1.03423 23.823 1.11182C23.7587 1.18914 23.705 1.27988 23.662 1.38329C23.1559 2.63472 22.5805 3.79824 21.9348 4.87378C21.5366 5.51512 21.1709 6.07093 20.837 6.54154C20.5035 7.01199 20.2237 7.35861 19.998 7.58079C19.7718 7.80319 19.5677 7.98136 19.3845 8.11595C19.2015 8.2506 19.0618 8.30749 18.9651 8.28668C18.8681 8.26587 18.7768 8.24522 18.6904 8.22457C18.5398 8.13144 18.4187 8.00478 18.3274 7.84449C18.2357 7.68419 18.174 7.48244 18.1417 7.23939C18.1096 6.99618 18.0906 6.78698 18.0852 6.61109C18.0802 6.43542 18.0825 6.18694 18.0934 5.86635C18.1046 5.5456 18.1096 5.32858 18.1096 5.2148C18.1096 4.82173 18.1176 4.39513 18.1336 3.93489C18.1499 3.47466 18.163 3.11001 18.1741 2.84136C18.185 2.57245 18.1901 2.28794 18.1901 1.988C18.1901 1.68806 18.1711 1.45284 18.1336 1.28211C18.0965 1.1116 18.0396 0.946093 17.9645 0.785637C17.8891 0.625343 17.7786 0.501346 17.6337 0.41332C17.4884 0.325403 17.3079 0.255635 17.093 0.203797C16.5226 0.0797461 15.7964 0.0126401 14.9138 0.00220737C12.9125 -0.0184406 11.6266 0.105773 11.0563 0.374686C10.8303 0.488305 10.6259 0.643545 10.443 0.839919C10.2493 1.06754 10.2223 1.19175 10.3621 1.21218C11.0079 1.30515 11.465 1.52755 11.734 1.87917L11.831 2.06549C11.9064 2.19992 11.9817 2.43791 12.057 2.77915C12.1323 3.12038 12.1808 3.49786 12.2022 3.91137C12.2559 4.66649 12.2559 5.31288 12.2022 5.8506C12.1483 6.38853 12.0975 6.8073 12.0489 7.10724C12.0003 7.40718 11.9277 7.65023 11.831 7.83634C11.734 8.02249 11.6695 8.13628 11.6372 8.17757C11.6049 8.21887 11.578 8.2449 11.5566 8.25511C11.4168 8.30662 11.2713 8.33287 11.1207 8.33287C10.97 8.33287 10.7872 8.26038 10.572 8.11552C10.3569 7.97066 10.1336 7.77168 9.90225 7.51825C9.67087 7.26477 9.40991 6.91054 9.11928 6.45553C8.82887 6.00051 8.52756 5.46274 8.2155 4.84221L7.95732 4.39219C7.79592 4.10269 7.57544 3.68114 7.29566 3.12794C7.01571 2.57452 6.76827 2.03919 6.55317 1.52206C6.46718 1.30488 6.338 1.13953 6.16586 1.02575L6.08508 0.979076C6.03137 0.93778 5.94516 0.89393 5.8269 0.8472C5.70846 0.800525 5.58488 0.767053 5.45565 0.746459L1.03318 0.777323C0.581265 0.777323 0.274634 0.875727 0.113178 1.07226L0.0485612 1.16523C0.0162813 1.21702 0 1.29972 0 1.41355C0 1.52734 0.0322799 1.66698 0.0968963 1.83233C0.742495 3.29073 1.44457 4.69724 2.20312 6.05208C2.96167 7.40691 3.62084 8.49827 4.18022 9.32517C4.73972 10.1527 5.31002 10.9336 5.89112 11.6677C6.47221 12.4021 6.85686 12.8727 7.04505 13.0795C7.23348 13.2866 7.38148 13.4415 7.48906 13.5449L7.89264 13.9171C8.15088 14.1654 8.5301 14.4627 9.03047 14.8091C9.53095 15.1557 10.085 15.497 10.693 15.8334C11.301 16.1692 12.0084 16.4433 12.8155 16.6553C13.6225 16.8675 14.408 16.9526 15.172 16.9115H17.0282C17.4047 16.8803 17.6899 16.7665 17.8837 16.5701L17.9479 16.4924C17.9911 16.4306 18.0315 16.3347 18.0688 16.2057C18.1066 16.0764 18.1254 15.934 18.1254 15.7791C18.1144 15.3344 18.1496 14.9337 18.2301 14.5769C18.3105 14.2203 18.4022 13.9514 18.5048 13.7703C18.6073 13.5893 18.7229 13.4366 18.8517 13.3128C18.9807 13.1888 19.0726 13.1136 19.1265 13.0878C19.1801 13.0618 19.2229 13.0441 19.2552 13.0335C19.5134 12.9508 19.8173 13.0309 20.1674 13.2742C20.5172 13.5172 20.8452 13.8173 21.1521 14.174C21.4588 14.531 21.8272 14.9315 22.2576 15.3761C22.6882 15.8209 23.0647 16.1516 23.3874 16.3691L23.71 16.5552C23.9255 16.6794 24.2053 16.7932 24.5497 16.8966C24.8935 17 25.1947 17.0258 25.4533 16.9742L29.5851 16.9122C29.9938 16.9122 30.3118 16.8472 30.5373 16.7181C30.7633 16.5889 30.8976 16.4465 30.9409 16.2915C30.9841 16.1365 30.9864 15.9605 30.9491 15.7638C30.9108 15.5676 30.8731 15.4304 30.8356 15.3529Z" fill="#DCDCDC"/>
</svg>
